<svg width="23" height="22" viewBox="0 0 23 22" fill="none" xmlns="http://www.w3.org/2000/svg">
<path d="M11.4108 5.52217C10.3275 5.52217 9.26862 5.84333 8.36792 6.44503C7.46722 7.04673 6.76522 7.90195 6.35067 8.90255C5.93613 9.90314 5.82766 11.0042 6.039 12.0664C6.25033 13.1286 6.77197 14.1043 7.53795 14.8702C8.30393 15.636 9.27984 16.1575 10.3423 16.3688C11.4047 16.5801 12.506 16.4716 13.5068 16.0572C14.5076 15.6427 15.363 14.9409 15.9648 14.0404C16.5666 13.1398 16.8879 12.0811 16.8879 10.9981C16.8889 10.2787 16.748 9.56615 16.4731 8.9013C16.1982 8.23646 15.7948 7.63238 15.286 7.12368C14.7772 6.61499 14.173 6.21167 13.508 5.93685C12.843 5.66204 12.1304 5.52112 11.4108 5.52217ZM11.4108 14.5591C10.7066 14.5591 10.0181 14.3503 9.43257 13.9591C8.84701 13.5679 8.39062 13.0119 8.12112 12.3614C7.85161 11.7109 7.7811 10.9951 7.91849 10.3046C8.05588 9.614 8.39501 8.97967 8.89299 8.48179C9.39097 7.98392 10.0254 7.64486 10.7161 7.5075C11.4069 7.37013 12.1228 7.44063 12.7734 7.71008C13.4241 7.97953 13.9802 8.43582 14.3714 9.02126C14.7627 9.6067 14.9715 10.295 14.9715 10.9991C14.9697 11.9427 14.5939 12.8471 13.9266 13.5143C13.2592 14.1816 12.3546 14.5572 11.4108 14.5591ZM18.3903 5.29829C18.3903 5.55092 18.3154 5.79787 18.175 6.00792C18.0346 6.21796 17.8351 6.38167 17.6017 6.47835C17.3682 6.57502 17.1114 6.60032 16.8635 6.55103C16.6157 6.50175 16.3881 6.3801 16.2094 6.20147C16.0307 6.02284 15.9091 5.79525 15.8598 5.54748C15.8105 5.29971 15.8358 5.04289 15.9325 4.8095C16.0292 4.57611 16.1929 4.37662 16.403 4.23627C16.6131 4.09592 16.8601 4.02101 17.1128 4.02101C17.2807 4.02062 17.447 4.05338 17.6021 4.11743C17.7573 4.18148 17.8983 4.27555 18.017 4.39424C18.1357 4.51292 18.2298 4.65389 18.2939 4.80903C18.3579 4.96418 18.3907 5.13045 18.3903 5.29829ZM22.018 6.59757C22.0541 4.93602 21.4342 3.32711 20.2926 2.11908C19.0827 0.982236 17.4763 0.363189 15.8162 0.39405C14.0529 0.294106 8.76575 0.294106 7.00138 0.39405C5.34319 0.361931 3.73815 0.979209 2.52897 2.11408C1.38859 3.32196 0.767654 4.92889 0.799583 6.58957C0.699618 8.35258 0.699618 13.6386 0.799583 15.4026C0.765391 17.0637 1.38665 18.6715 2.52897 19.8781C3.7394 21.0141 5.34546 21.633 7.00537 21.6031C8.76875 21.7031 14.0559 21.7031 15.8202 21.6031C17.4811 21.6384 19.0891 21.0187 20.2966 19.8781C21.4337 18.6684 22.0529 17.0624 22.022 15.4026C22.122 13.6396 22.122 8.35858 22.022 6.59457L22.018 6.59757ZM19.7388 17.2976C19.5575 17.7572 19.2837 18.1746 18.9342 18.524C18.5848 18.8733 18.1673 19.1471 17.7076 19.3284C16.3011 19.8861 12.9643 19.7572 11.4098 19.7572C9.85536 19.7572 6.51155 19.8811 5.11205 19.3284C4.65234 19.1471 4.23482 18.8733 3.88539 18.524C3.53596 18.1746 3.26209 17.7572 3.08077 17.2976C2.52297 15.8913 2.65192 12.5552 2.65192 11.0011C2.65192 9.44696 2.52797 6.10384 3.08077 4.70463C3.26208 4.24446 3.53616 3.82651 3.88595 3.47679C4.23575 3.12706 4.65378 2.85304 5.11405 2.67177C6.52055 2.11408 9.85736 2.24301 11.4118 2.24301C12.9663 2.24301 16.3101 2.11908 17.7096 2.67177C18.1693 2.85305 18.5868 3.12686 18.9362 3.47622C19.2857 3.82558 19.5595 4.24302 19.7408 4.70263C20.2986 6.10884 20.1697 9.44496 20.1697 10.9991C20.1697 12.5532 20.2976 15.8933 19.7398 17.2946L19.7388 17.2976Z" fill="#FFFAE5"></path>
</svg>