<svg width="22" height="22" viewBox="0 0 22 22" fill="none" xmlns="http://www.w3.org/2000/svg">
<path d="M4.92092 21.678H0.493085V7.41669H4.92092V21.678ZM2.70451 5.4722C2.19496 5.47457 1.69616 5.32579 1.27118 5.04467C0.846197 4.76356 0.514117 4.36273 0.316935 3.89288C0.119752 3.42304 0.0663231 2.90527 0.163404 2.40505C0.260485 1.90484 0.503715 1.44465 0.862337 1.08267C1.22096 0.720694 1.67887 0.473189 2.17815 0.371454C2.67744 0.269719 3.19568 0.318324 3.66735 0.511122C4.13901 0.70392 4.54291 1.03225 4.82797 1.4546C5.11303 1.87695 5.26646 2.37434 5.26883 2.88388C5.26939 3.56637 5.00015 4.22141 4.51981 4.70624C4.03947 5.19108 3.38697 5.4664 2.70451 5.4722ZM21.4946 21.678H17.0757V14.7358C17.0757 13.0812 17.0427 10.9598 14.7763 10.9598C12.4769 10.9598 12.121 12.7593 12.121 14.6168V21.678H7.6952V7.41669H11.9371V9.36318H11.9991C12.4242 8.63679 13.0384 8.03931 13.7762 7.63439C14.5141 7.22946 15.3479 7.03226 16.189 7.06379C20.6708 7.06379 21.4946 10.015 21.4946 13.848V21.681V21.678Z" fill="#FFFAE5"></path>
</svg>