<svg xmlns="http://www.w3.org/2000/svg" width="70" height="20" viewBox="0 0 70 20" fill="none">
<g clip-path="url(#clip0_1058_1057)">
<path d="M69.8818 11.2357C69.8013 11.2954 69.6779 11.5393 69.6028 11.7886C69.5276 12.0325 69.4149 12.1897 69.3559 12.1409C69.2969 12.0867 69.0554 12.1572 68.8139 12.2981C68.5778 12.439 67.9928 12.5582 67.5152 12.5637C66.7693 12.5745 66.5761 12.6504 66.1199 13.1057C65.6208 13.6097 65.2237 13.7398 64.3168 13.729C64.1075 13.729 63.5977 13.9024 63.1898 14.1246L61.7248 14.9214C60.9198 15.3604 59.9431 15.4851 59.6158 15.1924C59.4494 15.0406 59.4011 15.0569 59.4119 15.2466C59.4226 15.458 59.3958 15.458 59.2401 15.2466C59.0738 15.0298 59.0308 15.0352 58.8591 15.2845C58.7518 15.4417 58.5747 15.5447 58.4674 15.5176C58.3547 15.4851 58.2259 15.5447 58.1722 15.6423C58.1185 15.7398 57.9468 15.7832 57.7912 15.7344C57.6034 15.6748 57.5497 15.7073 57.6409 15.832C57.7322 15.962 57.5819 16.0271 57.1794 16.0379C56.8521 16.0433 56.471 16.1626 56.3315 16.2927C56.192 16.4227 55.7573 16.5853 55.3656 16.6504C54.9738 16.7154 54.4479 16.8021 54.201 16.8455C53.9542 16.8889 53.5785 17.0515 53.3692 17.2086C53.1599 17.3658 52.575 17.6206 52.0706 17.7669C51.5661 17.9187 50.5841 18.233 49.8971 18.4715C49.2102 18.7046 48.3409 18.9431 47.9706 19.0027C47.6003 19.0569 47.1495 19.1924 46.9671 19.3062C46.425 19.6314 44.799 20.1138 44.7346 19.9675C44.6219 19.7181 45.1425 18.7425 45.3947 18.7263C45.5342 18.7154 45.6415 18.6504 45.6362 18.5799C45.6201 18.3469 46.6719 17.8103 47.4232 17.6639C48.2979 17.4959 49.5698 16.9864 50.0903 16.5908C50.2996 16.4336 50.584 16.3414 50.7182 16.3848C50.8524 16.4282 50.9597 16.4011 50.9543 16.3252C50.9543 16.2493 51.0402 16.1788 51.1583 16.1734C51.2763 16.1626 51.872 15.9133 52.4891 15.6152C53.1009 15.317 53.6859 15.1165 53.7771 15.1653C53.8737 15.2141 54.0937 15.0894 54.2708 14.8834C54.4855 14.6341 54.8182 14.4986 55.2636 14.4661C55.6339 14.4444 55.9773 14.3414 56.031 14.2439C56.0847 14.1463 56.2188 14.1084 56.3369 14.1626C56.4979 14.2385 56.4925 14.2168 56.3369 14.0596C56.2188 13.9458 56.1598 13.729 56.2081 13.5772C56.2671 13.3821 56.3637 13.4688 56.5354 13.8807L56.7769 14.4607L56.8628 13.8103C56.9433 13.187 57.2331 12.878 57.2653 13.3767C57.2867 13.6965 57.6892 13.8103 57.9737 13.5772C58.1561 13.4309 58.14 13.4146 57.9093 13.5068C57.5551 13.6477 57.5282 13.5284 57.8341 13.1761C58.1132 12.8563 58.4191 12.8184 58.4405 13.1057C58.4513 13.2683 58.4888 13.2574 58.5854 13.084C58.6552 12.9539 58.8591 12.8563 59.0362 12.8672C59.2133 12.878 59.4977 12.8184 59.6695 12.7263C59.8573 12.6287 60.1202 12.6395 60.3349 12.7588C60.6139 12.9105 60.7159 12.9051 60.8018 12.7317C60.8662 12.6124 61.0003 12.5582 61.1023 12.6124C61.2043 12.6666 61.3438 12.6016 61.4136 12.4661C61.5853 12.1192 62.7391 11.8482 62.8679 12.1246C62.9484 12.2872 63.0074 12.2764 63.1362 12.0704C63.2274 11.9241 63.3079 11.8699 63.3133 11.9512C63.3186 12.0325 63.4206 12.0108 63.544 11.897C63.6621 11.7832 63.807 11.7344 63.866 11.7832C64.0216 11.9187 64.6656 11.6368 64.6549 11.4309C64.6495 11.3333 64.5422 11.1653 64.4134 11.0515C64.2256 10.8834 64.1451 10.8943 63.9841 11.0948C63.8768 11.2303 63.8446 11.3441 63.9197 11.3441C63.9948 11.3441 63.8821 11.4309 63.6675 11.5339C63.1791 11.7723 62.9645 11.6585 62.9323 11.1382C62.9108 10.8021 62.4922 10.2168 62.2829 10.2276C62.2561 10.2276 62.3473 10.5149 62.4922 10.8618C62.7552 11.4959 62.7391 11.8374 62.4493 11.6802C62.3634 11.6314 62.3258 11.4851 62.3688 11.355C62.4117 11.2249 62.358 11.0677 62.2561 11.0135C62.1488 10.9539 62.0736 11.0515 62.0897 11.2466C62.1166 11.7127 61.6014 11.9187 61.3009 11.561C61.0916 11.3062 61.0003 11.3008 60.453 11.5447C59.8626 11.8049 59.8251 11.794 59.4387 11.3658C59.1865 11.084 58.9557 10.9702 58.8323 11.0623C58.682 11.1707 58.7035 11.2412 58.9289 11.3496C59.2079 11.4851 59.2079 11.5122 58.9289 11.7507C58.4835 12.1409 58.3761 12.0867 58.3869 11.4797C58.3922 11.0406 58.3225 10.916 58.0488 10.8889C57.8073 10.8672 57.7751 10.8943 57.9307 10.9918C58.2259 11.1707 58.0595 11.7073 57.7 11.7507C57.5443 11.7669 57.2331 11.8157 56.997 11.8591C56.7662 11.9024 56.4603 11.8591 56.3208 11.7561C56.133 11.6206 56.0525 11.6368 56.0095 11.8049C55.9666 11.9729 55.8915 11.9891 55.7036 11.8536C55.5695 11.7561 55.3656 11.7398 55.2475 11.8265C54.9362 12.0488 54.4479 12.1355 54.4372 11.962C54.4264 11.7723 52.4945 12.0813 52.3013 12.2981C52.253 12.3577 52.0384 12.3469 51.8291 12.2818C51.609 12.2114 51.3246 12.2385 51.1583 12.3469C50.788 12.5853 50.1762 12.439 50.5197 12.1897C50.9221 11.9024 50.2674 11.4905 49.661 11.6585C49.382 11.7344 49.1619 11.8428 49.1727 11.9024C49.2532 12.336 49.1727 12.4769 48.9312 12.2981C48.7273 12.1517 48.6629 12.1788 48.6199 12.4282C48.5663 12.7154 48.5555 12.7208 48.5233 12.4444C48.4804 12.1192 48.0564 12.065 47.8955 12.3631C47.8418 12.4661 47.6432 12.5095 47.4554 12.4607C46.9188 12.3252 44.9171 12.4119 44.9278 12.5745C44.9278 12.6558 44.8473 12.7208 44.7453 12.7317C44.638 12.7371 44.4717 12.8618 44.3804 13.0027C44.2838 13.1436 43.9028 13.3062 43.5325 13.3604C42.9476 13.4417 42.8456 13.4038 42.7812 13.084C42.7329 12.8563 42.6202 12.7479 42.4861 12.813C42.3626 12.8726 42.3143 13.0569 42.3734 13.2412C42.4324 13.42 42.3948 13.5718 42.2929 13.5826C42.1909 13.5881 42.089 13.4038 42.0782 13.1653C42.0621 12.8997 41.9548 12.7425 41.7938 12.7534C41.6543 12.7642 41.5469 12.9214 41.563 13.1111C41.5845 13.4905 41.3216 13.5989 41.1874 13.2628C41.123 13.1057 41.0425 13.1057 40.8761 13.2628C40.522 13.5772 39.8672 13.7507 39.9316 13.5068C39.9638 13.3929 40.157 13.3116 40.3663 13.317C40.5756 13.3279 40.6937 13.2683 40.6346 13.187C40.5756 13.1057 40.6078 13.0027 40.7044 12.9647C40.9405 12.8672 40.699 12.3577 40.361 12.2547C40.1731 12.1951 40.1302 12.2439 40.2107 12.4282C40.3019 12.6341 40.2322 12.6666 39.8726 12.5962C39.497 12.5257 39.4379 12.5582 39.5399 12.7859C39.6097 12.9376 39.5936 13.0677 39.5023 13.0731C39.4111 13.0786 39.3306 12.9864 39.3199 12.8672C39.3091 12.7263 39.2555 12.7425 39.1589 12.9214C39.0462 13.1328 38.971 13.149 38.7886 12.9864C38.6115 12.8292 38.6061 12.7859 38.7779 12.775C38.8959 12.7696 38.9442 12.6937 38.8852 12.607C38.8262 12.5203 38.4398 12.6287 37.9997 12.8618C37.2752 13.2412 37.1894 13.252 36.7386 13.0298C36.4273 12.8726 36.2181 12.8509 36.1537 12.9702C36.0946 13.0786 35.5956 13.1436 34.8818 13.1382C34.211 13.1273 33.669 13.1978 33.6153 13.2954C33.567 13.3875 33.449 13.4255 33.3577 13.3767C33.2665 13.3279 33.2236 13.2249 33.2611 13.1544C33.2987 13.0786 33.1753 12.9214 32.9875 12.8021C32.7996 12.6829 32.6333 12.439 32.6225 12.2656C32.6118 12.0921 32.5313 12 32.4401 12.065C32.3488 12.1301 32.2845 12.3306 32.2952 12.5149C32.3059 12.6992 32.2415 12.8509 32.1449 12.8618C32.0483 12.8726 31.9839 13.0298 31.9947 13.2249C32.0161 13.5501 31.9839 13.5447 31.56 13.1436C31.3078 12.9051 31.1092 12.7967 31.1199 12.9051C31.1253 13.0135 30.9053 13.1165 30.6262 13.1328C30.1593 13.1653 30.1271 13.1273 30.1862 12.6666C30.2828 11.9566 29.7783 11.8265 29.2846 12.439C28.9358 12.8726 28.0879 13.149 28.2918 12.7642C28.3455 12.6666 28.2596 12.5962 28.1094 12.6016C27.9591 12.6124 27.884 12.6937 27.9484 12.7859C28.0128 12.878 27.8893 12.9702 27.6747 12.9973C27.0146 13.0731 26.7785 13.0244 26.5155 12.7371C26.2848 12.4878 26.274 12.4878 26.3975 12.7859C26.4779 12.9756 26.4457 13.1707 26.3223 13.2628C26.0003 13.5013 25.8608 13.4634 25.952 13.1653C26.0003 13.0135 25.9681 12.916 25.8876 12.9485C25.8071 12.9756 25.571 12.9214 25.3617 12.8184C25.0505 12.6666 24.97 12.6829 24.8948 12.916C24.8304 13.1219 24.7446 13.149 24.5782 13.0298C24.2723 12.8021 23.4352 12.9593 23.2688 13.2737C23.1883 13.42 23.1239 13.4417 23.1186 13.3279C23.1078 13.2195 22.9737 13.149 22.818 13.1761C22.6624 13.1978 22.4316 13.046 22.3029 12.8292C21.9218 12.1843 21.6696 12.0271 21.6964 12.4607C21.7072 12.6666 21.6374 12.8455 21.5408 12.8509C21.4442 12.8563 21.4013 12.7859 21.4496 12.6937C21.5891 12.4282 21.3047 12.3577 20.1831 12.3848C19.6089 12.3956 19.1313 12.3469 19.1259 12.2764C19.1259 12.2059 18.9488 12.1897 18.7395 12.2439C18.5302 12.2981 18.2619 12.3523 18.1385 12.3685C18.0151 12.3848 17.9668 12.4715 18.0312 12.5582C18.0956 12.6504 17.9721 12.7263 17.7521 12.7263C17.5374 12.7263 17.1028 12.7967 16.7861 12.8834C16.3944 12.9864 16.1636 12.9702 16.0617 12.8238C15.9382 12.6558 15.9114 12.6558 15.9168 12.8238C15.9221 12.9702 15.788 13.0135 15.4982 12.9593C15.2352 12.9105 15.0689 12.9539 15.0796 13.0623C15.085 13.1653 14.9669 13.2086 14.822 13.1599C14.6718 13.1111 14.5859 12.9647 14.6235 12.8347C14.704 12.5745 14.5805 12.5474 13.7487 12.6504C13.4536 12.6829 13.1584 12.6341 13.0887 12.5366C13.0189 12.439 12.8955 12.4065 12.8096 12.4661C12.7237 12.5257 12.6486 12.4553 12.6432 12.3089C12.6379 12.1626 12.5466 12.0488 12.4447 12.0542C12.3481 12.0596 12.3159 12.1409 12.3803 12.233C12.611 12.5582 11.9349 12.6721 11.6719 12.3469C11.4519 12.0759 11.3929 12.0704 11.2694 12.3035C11.146 12.5311 11.0494 12.4553 11.0601 12.1355C11.0601 12.0813 10.7059 12.0759 10.2659 12.1246C9.83121 12.168 9.3697 12.1355 9.24627 12.0488C9.08528 11.9349 9.02625 11.962 9.03698 12.1463C9.04771 12.3198 8.88672 12.4065 8.54327 12.4119C8.26421 12.4173 8.02809 12.3577 8.02272 12.2764C8.01735 12.1951 7.90466 12.2276 7.7705 12.3577C7.5934 12.5257 7.52364 12.5311 7.51827 12.3902C7.50754 12.2439 7.41631 12.2439 7.16409 12.4065C6.8743 12.5853 6.826 12.5745 6.83673 12.3035C6.8582 11.7615 6.79917 11.6965 6.54158 11.9946C6.23033 12.3523 5.48439 12.607 5.3234 12.4119C5.259 12.3306 5.07117 12.1788 4.91554 12.065C4.67405 11.897 4.60966 11.9133 4.53989 12.1409C4.48086 12.3306 4.51843 12.374 4.65796 12.2872C4.81895 12.1843 4.81895 12.2059 4.66869 12.3902C4.51306 12.5799 4.40573 12.5853 4.07301 12.3902C3.78322 12.2276 3.37537 12.2005 2.67237 12.3035C1.9479 12.4065 1.63664 12.3848 1.51858 12.2222C1.42735 12.0975 1.36295 12.0813 1.36832 12.1843C1.36832 12.2872 1.1483 12.3848 0.86924 12.4011C0.590185 12.4173 0.391626 12.3956 0.439924 12.3414C0.482856 12.2927 0.439924 12.168 0.343328 12.065C-0.000124749 11.6965 -0.0806215 9.98914 0.225266 9.51217C0.423825 9.19781 1.84593 8.8184 1.86203 9.07315C1.86203 9.14903 2.31282 9.19239 2.84946 9.16529C4.38963 9.08941 5.46292 9.11651 5.53805 9.22491C5.57562 9.27911 6.20349 9.30621 6.93333 9.27911C7.66853 9.25743 8.31788 9.31705 8.38764 9.42003C8.4574 9.52301 8.69889 9.54469 8.93502 9.46339C9.20334 9.37667 9.39117 9.40377 9.45556 9.53385C9.50923 9.64767 9.55752 9.66393 9.55752 9.57179C9.55752 9.34415 11.2641 9.29537 12.0476 9.50133C12.3856 9.59347 12.7667 9.61515 12.8955 9.55553C13.0243 9.49591 13.2228 9.55553 13.3409 9.68019C13.4965 9.84822 13.6414 9.85905 13.8561 9.72355C14.3337 9.42545 15.1977 9.42545 15.2138 9.72355C15.2352 10.0867 15.5733 10.0271 15.5626 9.65851C15.5626 9.46881 15.5948 9.43629 15.6592 9.57179C15.7289 9.71813 15.8202 9.72897 15.9543 9.60431C16.1636 9.40377 16.9042 9.48507 16.9149 9.70729C16.9149 9.78317 17.2638 9.78859 17.677 9.71271C18.1224 9.63141 18.5946 9.65851 18.8308 9.77233C19.0508 9.88074 19.3084 9.94036 19.3996 9.90242C19.8611 9.72897 22.7858 9.62599 22.8449 9.78317C22.8878 9.88615 23.2205 9.90242 23.6874 9.82111C24.2348 9.72355 24.5031 9.75065 24.6212 9.91326C24.7553 10.103 24.7822 10.103 24.7714 9.91326C24.7661 9.76691 24.868 9.71271 25.0558 9.77233C25.5925 9.94036 26.7946 9.94578 26.8858 9.78317C26.9341 9.68561 27.2936 9.65851 27.7605 9.71813C28.1952 9.77233 28.5977 9.79943 28.6621 9.77233C28.7265 9.75065 28.9572 9.81569 29.1773 9.9241C29.3973 10.0271 29.6603 10.0542 29.7676 9.9783C30.0252 9.79401 31.4205 9.68561 31.4312 9.84821C31.4312 9.91868 31.5868 9.96746 31.7639 9.95662C31.941 9.94578 32.1396 10.0271 32.204 10.1463C32.2952 10.3143 32.3327 10.3089 32.4025 10.1301C32.4615 9.9783 32.6762 9.92951 33.0572 9.97288C33.3953 10.0162 33.6636 9.96204 33.728 9.84821C33.8622 9.59347 34.6564 9.54469 34.6725 9.78859C34.6779 9.89157 34.7798 9.93494 34.8925 9.88616C35.0052 9.83737 35.2253 9.85363 35.3863 9.91867C35.5473 9.98914 35.8853 9.94578 36.1805 9.81027C36.583 9.62599 36.7869 9.62057 37.1304 9.77775C37.4255 9.91326 37.7797 9.9241 38.209 9.81027C38.5578 9.71813 39.0784 9.60431 39.3574 9.55553C39.6365 9.51217 39.9424 9.45255 40.0336 9.42545C40.1248 9.39835 40.5863 9.36583 41.0532 9.35499C41.7294 9.33331 41.8367 9.37125 41.5738 9.51759C41.3269 9.65309 41.4074 9.66393 41.8743 9.56637C42.2231 9.49049 42.5129 9.49591 42.5129 9.57721C42.5129 9.65851 42.7383 9.68019 43.0066 9.62057C43.2749 9.56095 43.656 9.59347 43.8545 9.68561C44.1497 9.82111 44.257 9.78859 44.4341 9.49049C44.6219 9.18155 44.7239 9.14903 45.1425 9.27911C45.4108 9.36583 45.7381 9.38209 45.8723 9.32247C46.0065 9.26285 46.2211 9.28995 46.3499 9.38751C46.4787 9.48507 46.6773 9.50133 46.7846 9.42003C47.0959 9.19781 47.9921 9.11651 48.3462 9.27911C48.7434 9.46339 48.9741 9.25743 48.6092 9.04063C48.3999 8.91597 48.416 8.89429 48.6897 8.91597C48.8775 8.93223 49.0868 9.00811 49.1458 9.08399C49.2102 9.15987 49.4678 9.06773 49.7201 8.87802C50.0206 8.65038 50.203 8.59618 50.2513 8.72084C50.2943 8.82382 50.4606 8.86718 50.627 8.80756C50.7933 8.75336 51.3461 8.76962 51.8613 8.84008C52.3764 8.91597 52.9453 8.96475 53.1277 8.95391C53.3102 8.94307 53.5678 9.00811 53.6966 9.10567C53.8737 9.23575 54.0078 9.19781 54.2332 8.96475C54.4855 8.70458 54.6465 8.67206 55.1777 8.78588C55.6661 8.88886 55.87 8.86719 56.0256 8.68832C56.3047 8.36854 56.0203 7.99998 55.4944 8.0054C55.0006 8.0054 53.9971 7.69103 53.9864 7.52301C53.9864 7.45797 53.3048 7.11109 52.4838 6.75336C51.1958 6.18968 51.0187 6.0596 51.1851 5.82111C51.3193 5.63141 51.3193 5.58263 51.1851 5.67477C51.0778 5.75065 50.9329 5.72355 50.8631 5.62599C50.7719 5.49591 50.6967 5.51217 50.6002 5.68561C50.4875 5.89157 50.466 5.89158 50.4499 5.69645C50.4392 5.55553 50.3318 5.51217 50.1708 5.58805C49.9991 5.66935 49.8703 5.59889 49.8005 5.38751C49.7254 5.16529 49.5698 5.08941 49.2907 5.13819C49.0653 5.17613 48.8775 5.14361 48.8775 5.06773C48.8775 4.99185 48.7541 4.97559 48.6199 5.04063C48.0672 5.29537 46.2533 4.1409 45.9421 3.33331C45.7918 2.94307 45.502 2.97559 45.5289 3.38209C45.5396 3.56095 45.4323 3.81569 45.2927 3.94578C45.0781 4.15174 45.0405 4.14632 45.0566 3.94036C45.0942 3.43087 45.0029 3.26285 44.6863 3.28453C44.4395 3.30079 44.3321 3.13819 44.2033 2.55282C44.0048 1.60973 43.5218 1.36041 43.5755 2.22762C43.5969 2.5474 43.7043 3.02437 43.817 3.28453L44.0209 3.75607L43.656 3.34957C43.452 3.12735 43.2803 2.80214 43.2642 2.63412C43.2481 2.3848 43.1837 2.36312 42.9208 2.52572C42.4861 2.79672 42.4109 2.78588 42.3895 2.42274C42.3787 2.2493 42.1748 2.0325 41.9333 1.94036C41.6918 1.84821 41.4879 1.66935 41.4825 1.53927C41.4664 1.31163 41.0049 1.05147 40.3341 0.894285C40.1409 0.850925 39.8404 0.634123 39.658 0.4119C39.3306 0.0108163 39.3306 0.00539626 39.7009 0.0379166C39.9048 0.0541767 40.1839 0.249299 40.3234 0.471521C40.5434 0.834665 40.581 0.840085 40.6722 0.558242C40.7634 0.265559 40.7956 0.260139 41.0908 0.498621C41.386 0.737104 41.4181 0.731684 41.4718 0.439001C41.5147 0.222198 41.5416 0.205938 41.5684 0.37396C41.606 0.623282 42.3519 1.01353 42.749 0.986426C42.8617 0.981006 43.0549 1.08399 43.1783 1.21949C43.3125 1.36041 43.5433 1.41461 43.7204 1.34415C43.8921 1.27911 44.037 1.30079 44.0423 1.39835C44.0477 1.49591 44.1658 1.52301 44.2999 1.46339C44.4395 1.39835 44.5522 1.43087 44.5629 1.53927C44.5683 1.64225 44.6649 1.72355 44.7722 1.71813C44.8849 1.71271 44.8258 1.56637 44.638 1.38209C44.0745 0.823824 44.7185 0.964746 45.3142 1.52843C45.7113 1.90242 45.7918 2.06502 45.6308 2.17884C45.3249 2.40106 45.6093 2.69916 46.0923 2.67206C46.4841 2.64496 46.5753 2.4932 46.4787 1.99998C46.4572 1.88074 46.5163 1.78317 46.6129 1.77775C46.7095 1.77233 46.8061 1.86447 46.8222 1.9783C46.8383 2.09754 46.8705 2.29808 46.8919 2.43358C46.9134 2.56908 47.0368 2.70458 47.171 2.74252C47.3159 2.78046 47.3588 2.73168 47.2837 2.62328C47.2139 2.5203 47.2139 2.42816 47.2891 2.41732C47.3642 2.40648 47.5735 2.3577 47.7559 2.30892C47.9384 2.26014 48.1852 2.29808 48.3087 2.39022C48.4321 2.48236 48.5931 2.50946 48.6736 2.44984C48.7487 2.39564 48.9473 2.48778 49.1083 2.6558C49.2907 2.8455 49.5322 2.91597 49.7362 2.8455C49.9186 2.78588 50.2567 2.8455 50.4767 2.98101C50.6967 3.11651 51.2549 3.25743 51.7164 3.28995C52.194 3.32247 52.5965 3.44713 52.6609 3.58805C52.7199 3.71813 52.8702 3.77775 52.9936 3.71813C53.1385 3.64767 53.2297 3.73439 53.2404 3.96204C53.2565 4.23846 53.3209 4.27098 53.5356 4.13006C53.8576 3.9241 54.2762 4.21136 54.3084 4.6558C54.3191 4.80756 54.3942 4.88886 54.4801 4.82924C54.566 4.76962 54.684 4.7913 54.743 4.87803C54.8074 4.96475 54.9631 4.98643 55.0972 4.92681C55.2314 4.86718 55.2851 4.7371 55.2153 4.63954C55.1348 4.52572 55.1992 4.49862 55.3978 4.55824C55.5641 4.61244 55.7734 4.65038 55.8593 4.64496C55.9451 4.63954 56.0256 4.75878 56.031 4.90513C56.0417 5.05147 56.1705 5.28453 56.3208 5.41461C56.471 5.54469 56.5891 5.57179 56.5784 5.47423C56.5676 5.37667 56.6374 5.28453 56.7179 5.27911C56.7984 5.27369 56.8682 5.40377 56.8628 5.56637C56.8628 5.72897 56.9916 5.88073 57.158 5.90242C57.3458 5.92952 57.4531 5.84279 57.4424 5.67477C57.4155 5.27911 57.9468 5.31163 58.081 5.71271C58.14 5.90242 58.2903 6.02708 58.4137 5.99456C58.5371 5.96204 58.7625 6.08128 58.9182 6.26014C59.1113 6.48236 59.2401 6.5203 59.3206 6.39022C59.385 6.28182 59.5729 6.21136 59.7392 6.23304C59.9056 6.25472 60.1739 6.29808 60.3403 6.31976C60.5066 6.34686 60.6247 6.46068 60.6086 6.57992C60.5764 6.78588 60.9735 6.72626 61.6121 6.42816C61.7463 6.36854 61.9341 6.5203 62.0844 6.80756C62.299 7.22491 62.4224 7.28453 62.9645 7.22491C63.5387 7.16529 63.5923 7.19781 63.5816 7.59347C63.5655 8.01082 63.5709 8.01624 63.705 7.63683L63.8392 7.24659L64.6388 7.63141C65.0788 7.84279 65.4438 8.09754 65.4491 8.18968C65.4545 8.28182 65.6691 8.32518 65.9267 8.28182C66.1843 8.23846 66.5975 8.32518 66.8551 8.47152C67.1074 8.61786 67.5367 8.71 67.805 8.67206C68.449 8.58534 69.0822 8.88887 69.1037 9.30621C69.1198 9.52301 69.2056 9.59889 69.3559 9.52843C69.7262 9.35499 70.2145 11.0135 69.8711 11.2628L69.8818 11.2357ZM64.8105 10.2439C64.51 10.2656 64.5851 10.6287 64.9071 10.7154C65.0198 10.7479 65.1057 10.6504 65.0949 10.4986C65.0842 10.3469 64.9554 10.233 64.8105 10.2439ZM61.7463 10.1572C61.4672 9.90784 61.4082 10.065 61.6175 10.5203C61.7516 10.8184 62.0468 10.8618 62.0307 10.5799C62.0253 10.4769 61.8965 10.2872 61.7463 10.1572ZM60.2007 10.3685C60.1632 10.3685 60.1417 10.4878 60.1524 10.6287C60.1632 10.7696 60.2437 10.8834 60.3349 10.878C60.4261 10.8726 60.4476 10.7534 60.3832 10.6179C60.3188 10.4769 60.2383 10.3685 60.2007 10.3685ZM59.1167 13.0244C59.0469 13.0244 58.9503 13.084 58.8967 13.1436C58.7733 13.2845 59.1918 13.6965 59.3475 13.5881C59.487 13.4905 59.2884 13.0135 59.1167 13.0244ZM58.6606 8.6558C58.564 8.6016 58.4888 8.6829 58.4996 8.82924C58.5103 8.97559 58.5908 9.09483 58.6874 9.08399C58.7786 9.07857 58.8538 9.00269 58.8484 8.91055C58.843 8.82382 58.7572 8.70458 58.6606 8.6558ZM47.7237 3.25201C47.5949 3.50133 47.7023 3.75065 47.933 3.73439C48.0135 3.73439 48.0243 3.56637 47.9599 3.37125C47.874 3.11651 47.8096 3.08399 47.7237 3.24659V3.25201ZM47.4071 11.6152C47.3105 11.561 47.2354 11.6423 47.2461 11.7886C47.2569 11.9349 47.3373 12.0542 47.4339 12.0433C47.5252 12.0379 47.6003 11.962 47.5949 11.8699C47.5896 11.7832 47.5037 11.6639 47.4071 11.6152ZM43.8814 12.4498C43.7901 12.4553 43.7687 12.5745 43.8331 12.71C43.8974 12.8509 43.9779 12.9593 44.0155 12.9593C44.0531 12.9593 44.0745 12.8401 44.0638 12.6992C44.0531 12.5582 43.9726 12.4444 43.8814 12.4498ZM43.1783 1.37125C43.0817 1.31705 43.0066 1.39293 43.0174 1.54469C43.0281 1.69103 43.1086 1.81027 43.2052 1.79943C43.3018 1.78859 43.3715 1.71813 43.3662 1.62599C43.3608 1.53927 43.2749 1.42003 43.1783 1.37125ZM43.2052 12.6612C43.0174 12.6721 42.8725 12.7967 42.8832 12.9431C42.8993 13.2032 43.2642 13.2737 43.4574 13.0515C43.6613 12.8184 43.5433 12.645 43.2052 12.6666V12.6612ZM23.1239 12.336C22.979 12.2927 22.8663 12.3306 22.8717 12.4173C22.8771 12.5095 22.9951 12.5745 23.1346 12.5691C23.2742 12.5582 23.3869 12.5203 23.3869 12.4878C23.3869 12.4498 23.2634 12.3848 23.1239 12.336ZM2.40941 11.4851C2.18939 11.3225 2.14646 11.3333 2.15719 11.5393C2.16792 11.6748 2.28598 11.7832 2.42551 11.7723C2.56504 11.7615 2.67773 11.7398 2.67773 11.7181C2.67773 11.7019 2.55431 11.5935 2.40941 11.4851ZM54.0347 13.8645C53.9435 13.8699 53.8576 13.7994 53.8522 13.7019C53.8469 13.6097 53.9166 13.523 54.0132 13.5176C54.1044 13.5122 54.1903 13.5826 54.1957 13.6802C54.201 13.7778 54.1313 13.8591 54.0347 13.8645ZM47.2354 12.9214C47.0959 12.9322 46.9778 12.9051 46.9778 12.8726C46.9778 12.8347 47.0851 12.7534 47.2247 12.6883C47.3642 12.6233 47.4769 12.645 47.4822 12.7371C47.4876 12.8292 47.3803 12.9105 47.2354 12.9214Z" fill="#FF2300"></path>
</g>
<defs>
<clipPath id="clip0_1058_1057">
<rect width="70" height="20" fill="white"></rect>
</clipPath>
</defs>
</svg>